<svg width="300" height="239" viewBox="0 0 300 239" fill="none" xmlns="http://www.w3.org/2000/svg">
<g clip-path="url(#clip0_1_85)">
<path d="M161.78 36.5288L157.542 47.4688L150.563 41.5808L157.542 32.0348L161.78 36.5288Z" fill="#F2C5AD"/>
<path d="M157.231 50.7518C158.755 51.2518 159.941 52.4638 160.612 53.9208C162.626 58.2908 162.404 68.5178 148.898 86.7688C131.77 109.917 191.996 69.8638 198.729 83.3018C198.729 83.3018 202.029 88.7818 197.98 84.8318C192.216 79.2098 167.068 98.9128 153.856 104.428C139.126 110.576 133.279 102.166 136.409 89.4718C139.314 77.6848 147.036 47.4088 157.231 50.7518Z" fill="#F2C5AD"/>
<path d="M160.688 52.3108C160.688 52.3108 165.758 59.6978 155.629 78.7348L141.025 70.8698C141.025 70.8698 148.115 41.8978 160.688 52.3108Z" fill="white"/>
<path d="M186.927 194.994L185.949 196.859C183.896 197.218 181.838 197.554 179.776 197.859C180.532 195.656 181.425 192.84 182.284 189.641C184.449 190.194 186.615 190.748 188.78 191.301C188.184 192.543 187.566 193.774 186.927 194.994Z" fill="#F2C5AD"/>
<path d="M177.937 202.828C177.937 202.828 178.482 201.507 179.273 199.292C179.386 198.965 180.07 196.988 180.168 196.694C180.255 196.432 180.347 197.397 180.378 197.761C181.35 197.609 182.321 197.448 183.293 197.289C183.482 197.057 184.337 195.313 186.548 195.716C188.093 195.998 185.818 197.108 185.818 197.108L196.882 201.538L177.937 202.828Z" fill="#000C38"/>
<path d="M125.563 108.518L144.352 107.424C144.352 107.424 175.768 123.813 190.083 141.418C195.309 147.652 198.148 154.313 196.883 164.503C195.835 172.937 193.975 179.575 190.55 187.439C189.985 188.737 189.394 190.024 188.781 191.301C186.616 190.748 184.45 190.194 182.285 189.641C185.444 177.872 188.065 161.014 181.064 151.09C169.497 134.696 121.919 130.94 125.563 108.518Z" fill="#FA0201"/>
<path d="M166.416 200.74C166.416 200.74 165.553 195.85 161.754 194.181C157.955 192.512 147.436 192.512 147.436 192.512V200.552L166.416 200.74Z" fill="#A1ACE2"/>
<path d="M56.909 144.656L55.187 146.238L33.701 122.947H36.945L56.909 144.656Z" fill="#18268F"/>
<path d="M85.544 131.195L84.768 133.4L55.819 122.947H62.096L85.544 131.195Z" fill="#18268F"/>
<path d="M10.537 121.159H75.519C76.011 121.159 76.413 121.561 76.413 122.053C76.413 122.545 76.011 122.947 75.519 122.947H62.096H55.819H36.945H33.701H10.537C10.045 122.947 9.64301 122.545 9.64301 122.053C9.64301 121.561 10.045 121.159 10.537 121.159Z" fill="#FA0201"/>
<path d="M76.413 226.294C64.592 226.294 54.975 216.677 54.975 204.856C54.975 202.709 55.301 200.637 55.891 198.68L58.275 198.673C58.229 198.809 58.165 198.935 58.122 199.072C57.545 200.898 57.23 202.839 57.23 204.856C57.23 206.872 57.545 208.814 58.122 210.639C59.999 216.58 64.688 221.27 70.629 223.147C72.455 223.724 74.396 224.038 76.413 224.038C78.429 224.038 80.371 223.723 82.197 223.147C88.138 221.27 92.827 216.581 94.704 210.639C95.281 208.813 95.595 206.872 95.595 204.856C95.595 202.84 95.28 200.898 94.704 199.072C94.649 198.899 94.569 198.738 94.51 198.567L96.904 198.56C97.517 200.552 97.851 202.665 97.851 204.855C97.85 216.677 88.233 226.294 76.413 226.294Z" fill="#18268F"/>
<path d="M76.412 213.086C77.223 213.086 77.886 213.749 77.886 214.56V218.181C77.886 218.992 77.223 219.655 76.412 219.655C75.601 219.655 74.938 218.992 74.938 218.181V214.56C74.938 213.75 75.602 213.086 76.412 213.086Z" fill="#18268F"/>
<path d="M76.413 196.625C75.602 196.625 74.939 195.962 74.939 195.151V191.53C74.939 190.719 75.602 190.056 76.413 190.056C77.224 190.056 77.887 190.719 77.887 191.53V195.151C77.887 195.962 77.223 196.625 76.413 196.625Z" fill="#18268F"/>
<path d="M66.708 203.382C67.519 203.382 68.182 204.045 68.182 204.856C68.182 205.667 67.519 206.33 66.708 206.33H63.087C62.276 206.33 61.613 205.667 61.613 204.856C61.613 204.045 62.276 203.382 63.087 203.382H66.708Z" fill="#18268F"/>
<path d="M82.196 186.565C80.37 185.988 78.429 185.674 76.412 185.674C74.396 185.674 72.454 185.989 70.628 186.565C64.824 188.399 60.234 192.926 58.274 198.673L55.89 198.68C58.549 189.862 66.739 183.419 76.412 183.419C86.043 183.419 94.207 189.803 96.903 198.561L94.509 198.568C92.53 192.872 87.964 188.387 82.196 186.565Z" fill="#5A5EC0"/>
<path d="M76.413 182.542C66.252 182.542 57.673 189.375 54.986 198.683L43.527 198.716C46.412 183.172 60.033 171.398 76.413 171.398C92.726 171.398 106.305 183.075 109.265 198.525L97.808 198.558C95.08 189.314 86.529 182.542 76.413 182.542Z" fill="#5A5EC0"/>
<path d="M54.986 198.683C54.419 200.646 54.098 202.713 54.098 204.857C54.098 217.161 64.108 227.171 76.413 227.171C88.717 227.171 98.727 217.161 98.727 204.857C98.727 202.669 98.397 200.559 97.807 198.559L109.264 198.526C109.657 200.577 109.87 202.691 109.87 204.857C109.87 223.335 94.89 238.315 76.412 238.315C57.934 238.315 42.954 223.335 42.954 204.857C42.954 202.758 43.156 200.708 43.526 198.717L54.986 198.683Z" fill="#18268F"/>
<path d="M86.117 203.382H89.738C90.549 203.382 91.212 204.045 91.212 204.856C91.212 205.667 90.549 206.33 89.738 206.33H86.117C85.306 206.33 84.643 205.667 84.643 204.856C84.643 204.045 85.306 203.382 86.117 203.382Z" fill="#18268F"/>
<path d="M76.413 182.542C86.529 182.542 95.081 189.314 97.807 198.558L96.903 198.561C94.207 189.803 86.043 183.419 76.412 183.419C66.739 183.419 58.549 189.862 55.89 198.68L54.985 198.683C57.673 189.376 66.252 182.542 76.413 182.542Z" fill="#FEFEFE"/>
<path d="M54.975 204.856C54.975 216.677 64.592 226.294 76.413 226.294C88.234 226.294 97.851 216.677 97.851 204.856C97.851 202.666 97.518 200.552 96.904 198.561L97.808 198.558C98.398 200.558 98.728 202.668 98.728 204.856C98.728 217.16 88.718 227.17 76.414 227.17C64.11 227.17 54.099 217.16 54.099 204.856C54.099 202.713 54.42 200.646 54.987 198.682L55.892 198.679C55.3 200.637 54.975 202.709 54.975 204.856Z" fill="#FEFEFE"/>
<path d="M82.196 191.027V186.565C87.964 188.388 92.529 192.872 94.51 198.568L87.515 198.588C84.416 197.47 82.196 194.511 82.196 191.027Z" fill="white"/>
<path d="M87.515 198.588L94.51 198.568C94.569 198.739 94.649 198.9 94.704 199.073H90.242C89.283 199.072 88.367 198.896 87.515 198.588Z" fill="white"/>
<path d="M62.584 199.072H58.122C58.165 198.935 58.229 198.808 58.275 198.673L65.133 198.653C64.331 198.921 63.476 199.072 62.584 199.072Z" fill="white"/>
<path d="M70.629 186.565V191.027C70.629 194.578 68.325 197.586 65.133 198.653L58.275 198.673C60.235 192.926 64.825 188.399 70.629 186.565Z" fill="white"/>
<path d="M90.242 210.639H94.704C92.827 216.58 88.138 221.27 82.197 223.147V218.685C82.196 214.241 85.798 210.639 90.242 210.639Z" fill="white"/>
<path d="M70.629 218.685V223.147C64.688 221.27 59.999 216.581 58.122 210.639H62.584C67.027 210.639 70.629 214.241 70.629 218.685Z" fill="white"/>
<path d="M65.133 198.653L87.515 198.588C88.368 198.896 89.283 199.072 90.242 199.072H94.704C95.281 200.898 95.595 202.839 95.595 204.856C95.595 206.872 95.28 208.814 94.704 210.639H90.242C85.799 210.639 82.197 214.241 82.197 218.685V223.147C80.371 223.724 78.43 224.038 76.413 224.038C74.397 224.038 72.455 223.723 70.629 223.147V218.685C70.629 214.242 67.027 210.639 62.584 210.639H58.122C57.545 208.813 57.23 206.872 57.23 204.856C57.23 202.84 57.545 200.898 58.122 199.072H62.584C63.476 199.072 64.331 198.921 65.133 198.653ZM86.117 206.33H89.738C90.549 206.33 91.212 205.667 91.212 204.856C91.212 204.045 90.549 203.382 89.738 203.382H86.117C85.306 203.382 84.643 204.045 84.643 204.856C84.643 205.667 85.306 206.33 86.117 206.33ZM74.938 218.182C74.938 218.993 75.601 219.656 76.412 219.656C77.223 219.656 77.886 218.993 77.886 218.182V214.561C77.886 213.75 77.223 213.087 76.412 213.087C75.601 213.087 74.938 213.75 74.938 214.561V218.182ZM61.613 204.856C61.613 205.667 62.276 206.33 63.087 206.33H66.708C67.519 206.33 68.182 205.667 68.182 204.856C68.182 204.045 67.519 203.382 66.708 203.382H63.087C62.276 203.382 61.613 204.045 61.613 204.856Z" fill="#A1ACE2"/>
<path d="M87.515 198.588L65.133 198.653C68.325 197.586 70.629 194.578 70.629 191.027V186.565C72.455 185.988 74.396 185.674 76.413 185.674C78.429 185.674 80.371 185.989 82.197 186.565V191.027C82.196 194.511 84.416 197.47 87.515 198.588ZM77.887 191.53C77.887 190.719 77.224 190.056 76.413 190.056C75.602 190.056 74.939 190.719 74.939 191.53V195.151C74.939 195.962 75.602 196.625 76.413 196.625C77.224 196.625 77.887 195.962 77.887 195.151V191.53Z" fill="#8B9AD1"/>
<path d="M153.994 200.704V166.779C153.994 166.779 161.971 155.792 163.432 140.408L82.196 125.738C82.196 125.738 55.225 132.953 43.027 157.721C31.85 180.416 32.765 197.018 32.765 197.018H37.694L139.822 198.526L153.994 200.704Z" fill="#3543AE"/>
<path d="M219.895 92.6728C223.866 92.5608 227.739 94.2928 230.774 96.8558C234.096 99.6618 236.51 103.407 238.536 107.237C242.858 115.406 245.753 124.225 247.843 133.228C248.595 136.47 249.861 139.835 249.598 143.239C249.4 145.804 248.165 148.439 245.883 149.625L243.586 151.051C243.586 151.051 244.485 140.012 232.19 116.342C223.219 99.0708 218.783 94.3998 217.04 93.1358C216.835 92.9878 216.942 92.6688 217.195 92.6688L219.895 92.6728Z" fill="#3543AE"/>
<path d="M217.43 97.4908L204.372 103.661L205.385 107.219C205.552 107.807 205.737 108.39 205.96 108.959C206.899 111.362 208.083 113.666 209.574 115.772C211.364 118.299 213.58 122.532 212.903 127.365C212.461 130.523 212.278 133.714 212.582 136.888C213.907 150.711 215.59 185.72 205.717 200.529L220.099 199.36C220.099 199.36 238.216 173.789 229.997 145.225L220.662 112.724L217.43 97.4908Z" fill="#A1ACE2"/>
<path d="M219.747 199.36L205.715 200.529C205.715 200.529 161.129 202.277 138.921 197.017L119.805 190.448L115.422 193.955C115.422 193.955 130.873 204.251 172.111 204.447L209.21 204.053C209.211 204.051 217.027 203.835 219.747 199.36Z" fill="#5A5EC0"/>
<path d="M221.635 208.711C221.635 208.711 223.123 215.498 217.633 218.606C212.144 221.714 166.851 224.25 156.624 220.264C146.397 216.278 132.096 207.406 132.096 207.406C132.096 207.406 148.734 214.603 174.449 216.639C174.449 216.639 194.319 217.331 211.56 214.993C211.56 214.993 217.62 213.403 221.635 208.711Z" fill="#A1ACE2"/>
<path d="M85.156 114.73C85.156 118.266 82.263 121.159 78.727 121.159H9.05798C5.52198 121.159 2.629 118.266 2.629 114.73V112.977H85.155L85.156 114.73Z" fill="#FFBFBF"/>
<path d="M2.63 107.425H85.156V112.977H2.63V107.425Z" fill="#FA0201"/>
<path d="M2.629 60.0868C2.629 56.5508 5.52198 53.6578 9.05798 53.6578H78.727C82.263 53.6578 85.156 56.5508 85.156 60.0868V107.425H2.63V60.0868H2.629Z" fill="#FFBFBF"/>
<path d="M1.125 79.5348H1.505C2.124 79.5348 2.63 79.0288 2.63 78.4098V70.1398C2.63 69.5208 2.124 69.0148 1.505 69.0148H1.125C0.506 69.0148 0 69.5208 0 70.1398V78.4098C0 79.0288 0.506 79.5348 1.125 79.5348Z" fill="#FA0201"/>
<path d="M1.125 105.801H1.505C2.124 105.801 2.63 105.295 2.63 104.676V96.4058C2.63 95.7868 2.124 95.2808 1.505 95.2808H1.125C0.506 95.2808 0 95.7868 0 96.4058V104.676C0 105.295 0.506 105.801 1.125 105.801Z" fill="#FA0201"/>
<path d="M52.364 145.325C50.584 144.052 48.135 144.313 46.671 145.94C43.427 149.548 37.755 156.086 33.263 162.485C32.647 163.363 31.738 163.99 30.693 164.231L26.758 165.139C25.565 165.414 24.72 166.477 24.72 167.701V168.952C24.72 170.275 25.703 171.393 27.016 171.561L37.134 172.854C37.134 172.854 42.705 153.553 52.364 145.325Z" fill="#18268F"/>
<path d="M96.853 114.99C102.997 114.407 108.961 116.883 115.014 118.085C121.329 119.338 127.822 119.203 134.25 119.551C140.678 119.898 147.254 120.787 152.908 123.865C158.562 126.943 163.167 132.605 163.432 139.037V140.408C156.482 144.788 147.449 146.003 139.156 144.846C128.351 143.339 118.358 138.471 108.326 134.183C99.699 130.495 88.599 127.062 79.303 126.685C81.78 120.308 90.036 115.638 96.853 114.99Z" fill="#18268F"/>
<path d="M217.081 97.8128C217.081 97.8128 213.605 92.8488 214.044 87.5888L207.908 76.7768L194.437 83.0588L204.372 103.66L217.081 97.8128Z" fill="#3543AE"/>
<path d="M206.867 83.8618C206.641 83.4958 206.523 83.0748 206.47 82.6478C206.253 80.9258 206.209 76.4728 210.976 74.1478C216.966 71.2258 225.44 90.6578 220.765 90.2198C216.301 89.8008 209.042 87.3848 206.867 83.8618Z" fill="#A1ACE2"/>
<path d="M233.143 199.27C235.803 183.452 249.554 171.398 266.128 171.398C270.438 171.398 274.552 172.222 278.336 173.706C271.998 175.088 261.029 178.718 246.946 188.271C241.286 192.109 237.493 196.998 233.143 199.27Z" fill="#5A5EC0"/>
<path d="M246.946 188.27C261.029 178.717 271.998 175.087 278.336 173.705C290.775 178.584 299.586 190.687 299.586 204.855C299.586 223.333 284.606 238.313 266.128 238.313C247.649 238.313 232.67 223.333 232.67 204.855C232.67 202.951 232.837 201.087 233.143 199.269C237.493 196.998 241.286 192.109 246.946 188.27Z" fill="#18268F"/>
<path d="M266.128 227.17C278.432 227.17 288.442 217.16 288.442 204.856C288.442 192.552 278.432 182.542 266.128 182.542C253.824 182.542 243.813 192.552 243.813 204.856C243.814 217.16 253.824 227.17 266.128 227.17ZM266.128 183.419C277.949 183.419 287.566 193.036 287.566 204.857C287.566 216.678 277.949 226.295 266.128 226.295C254.307 226.295 244.69 216.678 244.69 204.857C244.69 193.036 254.308 183.419 266.128 183.419Z" fill="#FEFEFE"/>
<path d="M271.912 191.027V186.565C277.853 188.442 282.542 193.131 284.419 199.073H279.957C275.514 199.072 271.912 195.47 271.912 191.027Z" fill="white"/>
<path d="M252.299 199.072H247.837C249.714 193.131 254.403 188.442 260.345 186.564V191.026C260.345 195.47 256.742 199.072 252.299 199.072Z" fill="white"/>
<path d="M279.957 210.639H284.419C282.542 216.58 277.853 221.27 271.912 223.147V218.685C271.912 214.241 275.514 210.639 279.957 210.639Z" fill="white"/>
<path d="M260.345 218.685V223.147C254.404 221.27 249.714 216.581 247.837 210.639H252.299C256.742 210.639 260.345 214.241 260.345 218.685Z" fill="white"/>
<path d="M247.837 199.072H252.299C256.742 199.072 260.344 195.47 260.344 191.026V186.564C262.17 185.987 264.111 185.673 266.128 185.673C268.144 185.673 270.086 185.988 271.912 186.564V191.026C271.912 195.469 275.514 199.072 279.957 199.072H284.419C284.996 200.898 285.311 202.839 285.311 204.856C285.311 206.872 284.996 208.814 284.419 210.639H279.957C275.514 210.639 271.912 214.241 271.912 218.685V223.147C270.086 223.724 268.145 224.038 266.128 224.038C264.112 224.038 262.17 223.723 260.344 223.147V218.685C260.344 214.242 256.742 210.639 252.299 210.639H247.837C247.26 208.813 246.946 206.872 246.946 204.856C246.946 202.84 247.26 200.898 247.837 199.072ZM275.833 206.33H279.454C280.265 206.33 280.928 205.667 280.928 204.856C280.928 204.045 280.265 203.382 279.454 203.382H275.833C275.022 203.382 274.359 204.045 274.359 204.856C274.359 205.667 275.022 206.33 275.833 206.33ZM264.654 218.182C264.654 218.993 265.317 219.656 266.128 219.656C266.939 219.656 267.602 218.993 267.602 218.182V214.561C267.602 213.75 266.939 213.087 266.128 213.087C265.317 213.087 264.654 213.75 264.654 214.561V218.182ZM264.654 195.151C264.654 195.962 265.317 196.625 266.128 196.625C266.939 196.625 267.602 195.962 267.602 195.151V191.53C267.602 190.719 266.939 190.056 266.128 190.056C265.317 190.056 264.654 190.719 264.654 191.53V195.151ZM252.802 206.33H256.423C257.234 206.33 257.897 205.667 257.897 204.856C257.897 204.045 257.234 203.382 256.423 203.382H252.802C251.991 203.382 251.328 204.045 251.328 204.856C251.328 205.667 251.992 206.33 252.802 206.33Z" fill="#A1ACE2"/>
<path d="M266.329 205.798C267.379 205.192 267.789 203.881 267.271 202.785L256.172 179.292L252.122 181.628L263.057 204.775C263.64 206.007 265.15 206.479 266.329 205.798Z" fill="#3543AE"/>
<path d="M245.413 149.883C248.752 153.553 254.506 153.022 259.464 153.214C270.859 153.654 281.889 159.816 288.238 169.288C272.463 170.918 257.21 177.301 244.977 187.393C238.436 192.789 232.006 199.556 223.556 200.275L242.826 151.876L245.413 149.883Z" fill="#A1ACE2"/>
<path d="M218.078 93.9418C217.767 93.6508 216.77 92.5128 216.764 92.9388C216.727 95.6068 217.27 104.171 223.556 123.532C231.43 147.786 234.645 164.149 228.216 179.929C221.787 195.708 222.082 203.45 207.469 203.598C192.811 203.746 141.478 207.407 115.423 193.955L109.871 196.626C109.871 196.626 139.676 215.87 178.54 217.331C178.54 217.331 194.904 217.623 211.56 214.993C211.56 214.993 220.169 214.993 231.644 194.83C243.119 174.667 244.288 150.35 244.288 150.35C244.288 150.35 244.631 133.324 226.197 103.589C226.197 103.589 220.901 96.5878 218.078 93.9418Z" fill="#18268F"/>
<path d="M140.294 197.325C140.294 197.325 154.579 148.954 103.734 140.188C52.889 131.422 40.909 170.385 39.448 182.9C37.987 195.415 37.695 197.017 37.695 197.017H111.332L140.294 197.325Z" fill="#A1ACE2"/>
<path d="M93.897 173.145H61.877C61.335 173.145 60.894 172.704 60.894 172.162C60.894 171.62 61.335 171.179 61.877 171.179H93.897C94.439 171.179 94.88 171.62 94.88 172.162C94.879 172.705 94.439 173.145 93.897 173.145Z" fill="#18268F"/>
<path d="M61.877 175.211H93.897C94.439 175.211 94.88 175.653 94.88 176.195C94.88 176.737 94.439 177.178 93.897 177.178H61.877C61.335 177.178 60.894 176.737 60.894 176.195C60.894 175.653 61.335 175.211 61.877 175.211Z" fill="#18268F"/>
<path d="M61.877 179.244H93.897C94.439 179.244 94.88 179.685 94.88 180.227C94.88 180.769 94.439 181.211 93.897 181.211H61.877C61.335 181.211 60.894 180.769 60.894 180.227C60.894 179.684 61.335 179.244 61.877 179.244Z" fill="#18268F"/>
<path d="M61.877 183.277H93.897C94.439 183.277 94.88 183.718 94.88 184.26C94.88 184.802 94.439 185.243 93.897 185.243H61.877C61.335 185.243 60.894 184.802 60.894 184.26C60.894 183.717 61.335 183.277 61.877 183.277Z" fill="#18268F"/>
<path d="M88.45 211.412V214.903C87.69 214.892 86.969 214.881 86.297 214.871V211.378C86.964 211.389 87.684 211.401 88.45 211.412Z" fill="#000C38"/>
<path d="M117.947 211.282C127.951 210.79 128.891 205.923 128.935 205.653C129.06 204.706 129.927 204.029 130.874 204.141C131.836 204.252 132.526 205.121 132.415 206.084C132.377 206.413 131.336 214.135 118.118 214.784C114.154 214.979 109.272 215.044 104.524 215.044C99.489 215.044 93.213 214.971 88.449 214.902V211.411C96.702 211.54 110.192 211.663 117.947 211.282Z" fill="#5A5EC0"/>
<path d="M86.265 211.377C86.276 211.377 86.286 211.377 86.297 211.378V214.871C86.289 214.871 86.28 214.871 86.272 214.871C86.247 214.3 86.214 213.688 86.214 213.049C86.213 212.465 86.241 211.904 86.265 211.377Z" fill="#5A5EC0"/>
<path d="M37.3 207.599H83.967C86.381 207.599 86.363 209.191 86.265 211.377C86.241 211.905 86.213 212.466 86.213 213.049C86.213 213.688 86.247 214.3 86.271 214.871C86.362 216.978 86.324 218.498 83.966 218.498H37.299C34.302 218.498 31.85 216.046 31.85 213.049C31.85 210.051 34.302 207.599 37.3 207.599Z" fill="#5A5EC0"/>
<path d="M197.68 81.2338C197.68 81.2338 203.23 86.5668 205.35 90.2188C207.469 93.8718 205.35 95.4788 205.35 95.4788C205.35 95.4788 200.719 88.0268 196.643 84.8128C196.643 84.8128 197.68 83.0748 197.68 81.2338Z" fill="#18268F"/>
<path d="M197.68 81.9638C197.585 84.4128 195.675 86.4198 193.224 86.4198C190.773 86.4198 188.768 84.4148 188.768 81.9638V81.2338C188.768 78.7828 190.773 76.7778 193.224 76.7778C193.224 76.7778 197.875 76.9578 197.68 81.9638Z" fill="#5A5EC0"/>
<path d="M192.566 81.5988L190.082 79.4078C190.082 79.4078 195.926 79.4078 195.514 82.5078C195.136 85.3518 189.448 83.7128 189.448 83.7128C189.448 83.7128 192.42 84.3748 192.566 81.5988Z" fill="#18268F"/>
<path d="M187.599 81.5988C187.599 82.8088 188.711 83.7908 190.083 83.7908C191.455 83.7908 192.567 82.8098 192.567 81.5988C192.567 80.3888 191.455 79.4078 190.083 79.4078C188.711 79.4078 187.599 80.3888 187.599 81.5988Z" fill="#3543AE"/>
<path d="M175.281 196.757L174.156 198.537C172.08 198.729 170.003 198.898 167.922 199.036C168.853 196.901 169.971 194.166 171.084 191.047C173.198 191.773 175.311 192.499 177.425 193.225C176.732 194.415 176.017 195.593 175.281 196.757Z" fill="#F7D8C4"/>
<path d="M165.69 203.841C165.69 203.841 166.34 202.568 167.307 200.424C167.446 200.107 168.287 198.192 168.409 197.907C168.517 197.653 168.531 198.622 168.532 198.988C169.514 198.915 170.494 198.833 171.475 198.752C171.682 198.536 172.675 196.866 174.846 197.447C176.364 197.853 174.006 198.776 174.006 198.776L184.677 204.084L165.69 203.841Z" fill="#000C38"/>
<path d="M121.087 105.617L144.351 107.425C144.351 107.425 169.487 121.517 182.337 140.219C187.044 146.854 191.065 155.871 188.982 165.925C187.258 174.247 183.548 181.957 179.5 189.519C178.832 190.768 178.139 192.003 177.426 193.225C175.312 192.499 173.199 191.773 171.085 191.047C175.182 179.571 179.153 162.979 172.975 152.523C162.768 135.25 110.438 128.424 121.087 105.617Z" fill="#FFBFBF"/>
<path d="M145.886 42.0828C138.702 46.2868 121.155 65.5078 121.088 105.616L144.352 107.424C144.352 107.424 144.726 88.8208 157.543 66.6128C157.543 66.6128 160.589 60.9428 160.171 52.8258C159.986 49.2298 158.427 45.7808 155.716 43.4118C153.288 41.2918 149.867 39.7538 145.886 42.0828Z" fill="#F9F8F7"/>
<path d="M151.521 44.1738C153.102 44.7238 154.316 46.0108 154.989 47.5438C157.007 52.1428 156.582 62.8088 142.143 81.5988C123.831 105.428 187.436 64.7748 194.207 78.9258C194.207 78.9258 197.547 84.7068 193.396 80.5088C187.488 74.5328 160.873 94.6158 146.982 100.12C131.495 106.256 125.553 97.3688 129.06 84.1828C132.315 71.9378 140.946 40.4928 151.521 44.1738Z" fill="#F7D8C4"/>
<path d="M156.821 49.2138C158.179 53.4048 158.539 61.5008 149.319 73.3428L134.229 64.8588C134.229 64.8588 140.821 39.8958 151.759 43.8258C154.189 44.6998 156.025 46.7568 156.821 49.2138Z" fill="white"/>
<path d="M160.17 52.8268C160.17 52.8268 161.3 48.6908 160.91 46.9378C160.52 45.1848 156.916 38.1718 152.728 36.6128C152.728 36.6128 149.611 35.5418 148.552 41.0528C148.552 41.0528 156.215 41.6698 160.17 52.8268Z" fill="white"/>
<path d="M162.053 5.65177C169.61 2.37777 178.328 7.98177 178.7 16.2088C178.78 17.9728 178.343 19.9928 177.722 22.2938C173.795 36.8458 165.57 44.3068 157.542 32.0338C151.52 22.8288 153.523 9.34777 162.053 5.65177Z" fill="#F7D8C4"/>
<path d="M153.02 18.2038C154.384 16.6448 155.455 19.1778 155.455 19.1778C155.845 22.0028 155.65 25.0218 154.237 25.0218C152.826 25.0218 151.657 19.7618 153.02 18.2038Z" fill="#F7D8C4"/>
<path d="M170.456 21.9048V30.8658L168.41 30.1848L170.456 21.9048Z" fill="#F2C5AD"/>
<path d="M157.655 27.6928C157.763 25.8278 157.639 23.9518 157.313 22.1118C158.669 23.6948 159.981 25.3278 161.803 26.2888C163.089 26.9668 164.574 27.2598 166.021 27.1198C167.538 26.9728 169.114 26.3728 170.532 26.9308C171 27.1148 171.413 27.4148 171.873 27.6158C173.38 28.2738 175.07 27.7618 176.504 26.8588C175.331 29.8968 173.717 32.7948 172.269 34.5548C172.269 34.5548 168.213 40.7698 162.711 37.3278C162.711 37.3278 160.153 35.9828 157.73 32.3068C157.609 31.7018 157.522 31.0898 157.511 30.4728C157.494 29.5438 157.602 28.6188 157.655 27.6928Z" fill="white"/>
<path d="M154.521 18.2198C157.452 20.1288 158.772 24.0958 162.001 25.4408C164.332 26.4118 166.993 25.7228 169.507 25.9558C170.779 26.0738 172.201 26.9788 173.475 27.0668C174.749 27.1548 176.065 26.3808 176.995 25.5048C176.843 25.9568 176.678 26.4088 176.505 26.8578C175.071 27.7608 173.381 28.2728 171.874 27.6148C171.414 27.4138 171 27.1138 170.533 26.9298C169.115 26.3718 167.539 26.9718 166.022 27.1188C164.575 27.2588 163.089 26.9668 161.804 26.2878C159.982 25.3268 158.671 23.6938 157.314 22.1108C157.64 23.9508 157.764 25.8258 157.656 27.6918C157.603 28.6188 157.495 29.5438 157.512 30.4718C157.523 31.0888 157.61 31.7008 157.731 32.3058C157.668 32.2108 157.605 32.1328 157.543 32.0348C156.333 30.1308 156.646 28.7778 156.625 26.3858C156.606 24.1738 156.558 22.2928 155.866 20.5228C155.559 19.7398 155.14 18.9768 154.521 18.2198Z" fill="#F7F7F7"/>
<path d="M175.01 30.2388C175.01 30.2388 167.885 31.9378 160.209 27.9438C160.209 27.9438 166.791 32.6188 174.662 30.8658L175.01 30.2388Z" fill="#F7F7F7"/>
<path d="M173.085 33.4958C173.085 33.4958 165.475 34.4778 161.78 31.2598C161.78 31.2598 164.903 35.3468 172.695 34.0808L173.085 33.4958Z" fill="#F7F7F7"/>
<path d="M154.529 20.9538C154.628 22.3588 154.123 23.6738 154.706 25.8188C155.362 23.0968 156.84 21.1958 156.524 19.4708C156.467 19.1598 156.397 18.8048 156.589 18.5528C156.709 18.3958 156.904 18.3198 157.066 18.2068C157.926 17.6058 157.622 16.2808 157.226 15.3088C157.73 15.6748 158.487 15.3408 158.808 14.8078C159.129 14.2748 159.15 13.6218 159.217 13.0028C160.182 13.6078 161.228 14.2058 162.367 14.1958C163.506 14.1858 164.714 13.3158 164.668 12.1778C166.094 13.2808 167.748 14.0868 169.496 14.5308C170.699 14.8368 172.219 14.8568 172.911 13.8248C173.681 15.2248 175.087 16.2588 176.654 16.5768C177.614 16.7718 178.847 16.5488 179.164 15.6218C179.226 15.4418 179.261 15.2258 179.425 15.1288C179.604 15.0218 179.829 15.1188 180.035 15.1498C180.698 15.2488 181.28 14.5758 181.316 13.9068C181.352 13.2378 180.997 12.6118 180.603 12.0688C180.023 11.2688 179.331 10.5498 178.554 9.93878C179.146 10.0998 179.995 10.1218 180.142 9.52577C180.211 9.24477 180.064 8.96077 179.914 8.71377C178.045 5.64477 174.709 3.54476 171.148 3.10276C171.059 1.98276 169.913 1.01477 168.764 0.640774C166.537 -0.084226 163.953 0.413776 162.155 1.91478C162.483 1.43578 162.162 0.663766 161.591 0.557766C161.02 0.451766 160.444 1.05678 160.578 1.62178C160.201 0.814777 159.571 -0.134226 158.693 0.015774C158.13 0.111774 157.743 0.665774 157.625 1.22477C157.507 1.78377 157.594 2.36277 157.615 2.93377C157.622 3.11577 157.613 3.31977 157.482 3.44677C157.365 3.55977 157.188 3.57477 157.028 3.60977C155.739 3.89977 154.5 4.44076 155.193 6.86576C155.193 6.86576 155.73 7.76078 154.238 7.77678C153.211 7.78778 152.705 9.19278 152.622 10.2168C152.539 11.2408 152.88 12.2548 153.335 13.1758C153.469 13.4468 153.618 13.7438 153.548 14.0388C153.413 14.6098 152.649 14.6908 152.155 15.0058C151.508 15.4198 151.325 16.3398 151.589 17.0618C151.853 17.7838 152.396 18.1468 153.058 18.5368C153.056 18.5358 154.406 19.2108 154.529 20.9538Z" fill="#000C38"/>
</g>
<defs>
<clipPath id="clip0_1_85">
<rect width="300" height="239" fill="white"/>
</clipPath>
</defs>
</svg>
